# xmcd CD database file
#
# Track frame offsets:
#	150
#	3130
#	15510
#	39190
#	51187
#	67665
#	83720
#	98285
#	110155
#	131890
#	149760
#	173350
#	187032
#	207217
#	225405
#	251082
#	268642
#	285520
#	309667
#	329595
#
# Disc length: 4656 seconds
#
# Revision: 2
# Processed by: cddbd v1.5.1PL0 Copyright (c) Steve Scherf et al.
# Submitted via: CDex 1.50
#
DISCID=0b122e14
DTITLE=FEEL SO BAD - FEEL SO BEST
DYEAR=2001
DGENRE=Rock
TTITLE0=INTRO
TTITLE1=VAMPIRE
TTITLE2=バリバリ最強 No.1
TTITLE3=有酸素運動
TTITLE4=大好きQUEEN
TTITLE5=愛されたい YEAH, YEAH
TTITLE6=INTO THE AIR
TTITLE7=DEAR FRIEND
TTITLE8=晩夏
TTITLE9=今夜はおしゃれをして
TTITLE10=ときまきましょう
TTITLE11=時計じかけの暴れん坊
TTITLE12=F.S.B.
TTITLE13=TOP OF THE WORLD
TTITLE14=したたかになれ
TTITLE15=ANIMAL
TTITLE16=唇に銃を押しあてて
TTITLE17=HEAVEN
TTITLE18=LONG WINDING ROAD
TTITLE19=誇り高く
EXTD=YEAR: 2001
EXTT0=
EXTT1=
EXTT2=
EXTT3=
EXTT4=
EXTT5=
EXTT6=
EXTT7=
EXTT8=
EXTT9=
EXTT10=
EXTT11=
EXTT12=
EXTT13=
EXTT14=
EXTT15=
EXTT16=
EXTT17=
EXTT18=
EXTT19=
PLAYORDER=
